<?xml version="1.0" encoding="utf-8"?>
<!-- Generator: Adobe Illustrator 23.0.1, SVG Export Plug-In . SVG Version: 6.00 Build 0)  -->
<svg version="1.1" id="Camada_1" xmlns="http://www.w3.org/2000/svg" xmlns:xlink="http://www.w3.org/1999/xlink" x="0px" y="0px"
	 width="48px" height="48px" viewBox="0 0 48 48" style="enable-background:new 0 0 48 48;" xml:space="preserve">
<style type="text/css">
	.st0{fill:#323238;}
	.st1{fill:#FFFFFF;}
</style>
<rect class="st0" width="48" height="48"/>
<path class="st1" d="M35.1,17.9h-7.8v-2.2h7.8V17.9z M36.9,29c-0.5,1.4-2.3,3.3-5.6,3.3s-6.2-1.9-6.2-6.2s2.6-6.6,6-6.6
	s5.5,2,5.9,4.9c0.1,0.8,0.2,1.6,0.1,2.3h-8.8c-0.1,1.7,1.2,3,2.8,3.1c0.8,0.1,1.7-0.3,2.3-0.8H36.9z M28.4,24.5h5.5
	c0-1.4-1.1-2.5-2.5-2.5c-0.1,0-0.2,0-0.2,0C29.8,22,28.5,23,28.4,24.5L28.4,24.5z M17.9,32.3h-7.2V15.7h7.7c6,0.1,6.2,6,3,7.6
	C25.3,24.8,25.3,32.3,17.9,32.3z M14.1,22.3h4c2.8,0,3.2-3.3-0.4-3.3h-3.6V22.3z M17.8,25.7h-3.8V29h3.7
	C21.1,29,20.9,25.7,17.8,25.7z"/>
</svg>
